<svg width="16" height="16" viewBox="0 0 24 24" fill="none" xmlns="http://www.w3.org/2000/svg">
<path d="M7.28571 13.102C7.42183 14.1103 9.33796 18.4033 10.2121 15.9867C11.2556 13.102 12.2481 10.1143 16.7143 7.28571M10.9385 22.9196C11.4363 22.8483 23.4867 21.2966 22.9848 10.4764C22.9386 9.48226 22.8102 8.57791 22.6105 7.75811C22.3606 6.73175 21.999 5.83791 21.5477 5.06631C17.8481 -1.25948 8.11845 0.630335 4.41348 5.06631C2.95969 6.80842 -0.0871885 11.2265 1.39763 16.7491C2.3284 20.2109 5.3481 22.4187 8.5 22.9004C9.31528 23.025 10.1394 23.0341 10.9385 22.9196Z" stroke="#FF2868" stroke-width="2" stroke-linecap="round"/>
</svg>
